<svg width="20" height="21" viewBox="0 0 20 21" fill="none" xmlns="http://www.w3.org/2000/svg">
<g clip-path="url(#clip0)">
<path d="M17.5 0.600098H2.1C1.54305 0.600098 1.0089 0.821347 0.615076 1.21517C0.221249 1.609 0 2.14314 0 2.7001L0 18.1001C0 18.6571 0.221249 19.1912 0.615076 19.585C1.0089 19.9789 1.54305 20.2001 2.1 20.2001H8.10469V13.5365H5.34844V10.4001H8.10469V8.0096C8.10469 5.29054 9.72344 3.7886 12.2027 3.7886C13.3901 3.7886 14.6317 4.00035 14.6317 4.00035V6.6691H13.2637C11.9157 6.6691 11.4953 7.5056 11.4953 8.36354V10.4001H14.5044L14.0232 13.5365H11.4953V20.2001H17.5C18.057 20.2001 18.5911 19.9789 18.9849 19.585C19.3787 19.1912 19.6 18.6571 19.6 18.1001V2.7001C19.6 2.14314 19.3787 1.609 18.9849 1.21517C18.5911 0.821347 18.057 0.600098 17.5 0.600098Z" fill="#FFFFFF"></path>
</g>
<defs>
<clipPath id="clip0">
<rect width="20" height="20.8" fill="white"></rect>
</clipPath>
</defs>
</svg>