<svg width="20" height="20" viewBox="0 0 20 20" fill="none" xmlns="http://www.w3.org/2000/svg">
<path d="M10.1966 5.16228C7.52107 5.16228 5.36302 7.32033 5.36302 9.99581C5.36302 12.6713 7.52107 14.8293 10.1966 14.8293C12.872 14.8293 15.0301 12.6713 15.0301 9.99581C15.0301 7.32033 12.872 5.16228 10.1966 5.16228ZM10.1966 13.1382C8.46759 13.1382 7.05412 11.729 7.05412 9.99581C7.05412 8.26264 8.46338 6.85338 10.1966 6.85338C11.9297 6.85338 13.339 8.26264 13.339 9.99581C13.339 11.729 11.9255 13.1382 10.1966 13.1382ZM16.3552 4.96456C16.3552 5.59136 15.8504 6.09197 15.2278 6.09197C14.601 6.09197 14.1004 5.58716 14.1004 4.96456C14.1004 4.34197 14.6052 3.83716 15.2278 3.83716C15.8504 3.83716 16.3552 4.34197 16.3552 4.96456ZM19.5565 6.10879C19.485 4.59858 19.1401 3.26084 18.0337 2.15867C16.9315 1.05651 15.5938 0.711557 14.0836 0.635836C12.5271 0.547495 7.86182 0.547495 6.30533 0.635836C4.79932 0.70735 3.46158 1.0523 2.35521 2.15447C1.24884 3.25663 0.90809 4.59437 0.832369 6.10459C0.744028 7.66108 0.744028 12.3263 0.832369 13.8828C0.903884 15.393 1.24884 16.7308 2.35521 17.833C3.46158 18.9351 4.79511 19.2801 6.30533 19.3558C7.86182 19.4441 12.5271 19.4441 14.0836 19.3558C15.5938 19.2843 16.9315 18.9393 18.0337 17.833C19.1359 16.7308 19.4808 15.393 19.5565 13.8828C19.6449 12.3263 19.6449 7.66528 19.5565 6.10879ZM17.5457 15.5529C17.2176 16.3774 16.5824 17.0126 15.7536 17.345C14.5127 17.8372 11.5679 17.7236 10.1966 17.7236C8.82516 17.7236 5.87624 17.833 4.63946 17.345C3.81494 17.0168 3.17973 16.3816 2.84739 15.5529C2.35521 14.3119 2.46879 11.3672 2.46879 9.99581C2.46879 8.62442 2.35941 5.6755 2.84739 4.43872C3.17552 3.6142 3.81073 2.97898 4.63946 2.64665C5.88045 2.15447 8.82516 2.26805 10.1966 2.26805C11.5679 2.26805 14.5169 2.15867 15.7536 2.64665C16.5782 2.97478 17.2134 3.60999 17.5457 4.43872C18.0379 5.67971 17.9243 8.62442 17.9243 9.99581C17.9243 11.3672 18.0379 14.3161 17.5457 15.5529Z" fill="#FFFFFF"></path>
</svg>