<svg width="20" height="21" viewBox="0 0 20 21" fill="none" xmlns="http://www.w3.org/2000/svg">
<g clip-path="url(#clip0)">
<path d="M18.2 0.600098H1.39562C0.625625 0.600098 0 1.23447 0 2.01322V18.787C0 19.5657 0.625625 20.2001 1.39562 20.2001H18.2C18.97 20.2001 19.6 19.5657 19.6 18.787V2.01322C19.6 1.23447 18.97 0.600098 18.2 0.600098ZM5.92375 17.4001H3.01875V8.04635H5.92812V17.4001H5.92375ZM4.47125 6.76885C3.53937 6.76885 2.78687 6.01197 2.78687 5.08447C2.78687 4.15697 3.53937 3.4001 4.47125 3.4001C5.39875 3.4001 6.15562 4.15697 6.15562 5.08447C6.15562 6.01635 5.40312 6.76885 4.47125 6.76885ZM16.8131 17.4001H13.9081V12.8501C13.9081 11.7651 13.8862 10.3695 12.3987 10.3695C10.885 10.3695 10.6531 11.5507 10.6531 12.7714V17.4001H7.74812V8.04635H10.535V9.32385H10.5744C10.9637 8.58885 11.9131 7.81447 13.3262 7.81447C16.2662 7.81447 16.8131 9.7526 16.8131 12.2726V17.4001Z" fill="#FFFFFF"></path>
</g>
<defs>
<clipPath id="clip0">
<rect width="20" height="20.8" fill="white"></rect>
</clipPath>
</defs>
</svg>