<?xml version="1.0" standalone="no"?>
<!DOCTYPE svg PUBLIC "-//W3C//DTD SVG 20010904//EN"
 "http://www.w3.org/TR/2001/REC-SVG-20010904/DTD/svg10.dtd">
<svg version="1.0" xmlns="http://www.w3.org/2000/svg"
 width="117.000000pt" height="127.000000pt" viewBox="0 0 117.000000 127.000000"
 preserveAspectRatio="xMidYMid meet">
<metadata>
Created by potrace 1.16, written by Peter Selinger 2001-2019
</metadata>
<g transform="translate(0.000000,127.000000) scale(0.100000,-0.100000)"
fill="#000000" stroke="none">
<path d="M725 1145 c-333 -92 -295 -74 -369 -168 -92 -117 -153 -183 -160
-176 -4 4 5 20 19 38 l27 31 -61 -22 -61 -22 0 -45 0 -46 63 -27 c34 -15 129
-56 212 -93 l150 -65 135 50 c74 28 189 70 255 94 l120 44 0 42 0 42 -144 49
c-79 27 -146 51 -149 54 -3 2 26 39 64 80 123 136 126 140 114 169 -5 14 -13
26 -17 25 -5 -1 -93 -25 -198 -54z m137 -37 c-13 -13 -35 -19 -232 -69 -69
-18 -131 -37 -138 -42 -20 -16 -104 -128 -99 -133 2 -3 44 7 93 22 49 15 115
34 147 43 47 14 69 28 127 86 39 38 70 65 70 59 0 -5 -30 -40 -67 -76 l-68
-67 -165 -50 c-91 -27 -174 -53 -184 -57 -18 -7 3 24 108 161 20 26 38 34 122
54 99 24 163 41 239 67 51 17 62 17 47 2z"/>
<path d="M120 505 l0 -204 30 -16 c16 -8 31 -15 35 -15 3 0 5 70 5 155 0 178
-4 172 90 125 l60 -30 0 -80 c0 -48 -4 -80 -10 -80 -6 0 -33 11 -61 25 l-50
26 3 -83 3 -83 53 -28 52 -28 0 55 c0 63 5 66 63 41 20 -8 39 -15 42 -15 3 0
5 46 5 102 0 66 3 99 10 92 5 -5 11 -84 12 -174 l3 -165 44 -24 44 -24 -7 219
c-5 145 -12 223 -19 230 -7 6 -52 28 -102 49 -49 20 -101 43 -115 51 -29 15
-181 84 -186 84 -2 0 -4 -92 -4 -205z"/>
<path d="M950 674 c-188 -68 -180 -64 -180 -89 0 -14 7 -25 20 -28 11 -3 20
-11 20 -17 0 -7 -7 -10 -15 -6 -10 4 -15 -1 -15 -15 0 -13 5 -18 13 -15 6 3
20 9 30 12 12 4 17 17 17 40 0 29 -4 34 -22 34 -19 0 -20 2 -8 10 36 23 50 12
50 -38 0 -46 -2 -50 -39 -70 -59 -34 -71 -30 -71 22 0 52 -8 76 -24 76 -6 0
-44 -13 -85 -28 l-73 -28 1 -219 c1 -121 4 -221 5 -223 2 -1 29 8 60 22 l56
25 0 185 c0 117 4 186 10 186 12 0 12 5 10 -192 -1 -86 2 -158 7 -161 4 -3 32
4 61 15 l52 19 0 138 c0 111 3 141 15 151 13 11 15 -4 15 -129 0 -77 4 -141 9
-141 5 0 36 12 70 28 l61 27 0 188 c0 118 4 187 10 187 6 0 10 -67 10 -180 0
-146 3 -180 14 -180 7 0 16 14 20 31 9 45 8 399 -1 398 -5 0 -51 -16 -103 -35z"/>
</g>
</svg>
