<svg width="20" height="24" viewBox="0 0 20 24" fill="none" xmlns="http://www.w3.org/2000/svg">
<g clip-path="url(#clip0)">
<path d="M19.5077 11.813C19.2666 10.7654 18.4097 9.99267 17.3784 9.87765C14.9366 9.60488 12.464 9.6036 10.0035 9.60488C7.54193 9.6036 5.06982 9.60488 2.62731 9.87765C1.59647 9.99293 0.740097 10.7657 0.499242 11.813C0.155973 13.3047 0.151855 14.933 0.151855 16.469C0.151855 18.005 0.151855 19.633 0.495125 21.1247C0.73598 22.1721 1.59235 22.9448 2.62371 23.0601C5.06571 23.3331 7.53781 23.3341 9.99911 23.3331C12.4607 23.3344 14.9323 23.3331 17.375 23.0601C18.4059 22.9448 19.2628 22.1721 19.5036 21.1247C19.8466 19.633 19.8484 18.005 19.8484 16.469C19.8482 14.9328 19.8507 13.3047 19.5077 11.813ZM5.77 12.9691H4.34443V20.5442H3.02024V12.9691H1.62066V11.7283H5.77V12.9691ZM9.36661 20.5445H8.17546V19.8278C7.70224 20.3703 7.25296 20.6348 6.81525 20.6348C6.43158 20.6348 6.16757 20.4794 6.04843 20.1467C5.98358 19.948 5.94344 19.6336 5.94344 19.1699V13.9755H7.13356V18.8119C7.13356 19.0909 7.13356 19.2357 7.14437 19.2748C7.17293 19.4596 7.26325 19.5533 7.42279 19.5533C7.66159 19.5533 7.91119 19.3693 8.17521 18.9959V13.9755H9.36636L9.36661 20.5445ZM13.8886 18.5729C13.8886 19.1804 13.8476 19.6181 13.7681 19.8965C13.6091 20.3852 13.2908 20.6348 12.8173 20.6348C12.3938 20.6348 11.9851 20.3996 11.5871 19.9081V20.5447H10.3969V11.7283H11.5871V14.6075C11.9715 14.1343 12.3796 13.895 12.8173 13.895C13.2908 13.895 13.6094 14.1443 13.7681 14.6361C13.8482 14.9003 13.8886 15.3347 13.8886 15.9567V18.5729ZM18.3807 17.4769H16.0002V18.6413C16.0002 19.2494 16.1991 19.553 16.6082 19.553C16.9013 19.553 17.0719 19.3937 17.1398 19.0757C17.1509 19.0111 17.1666 18.7466 17.1666 18.2692H18.3809V18.4429C18.3809 18.8266 18.3662 19.0909 18.3554 19.2097C18.3156 19.4732 18.2219 19.7123 18.0775 19.9228C17.7479 20.3999 17.2595 20.6351 16.6378 20.6351C16.0151 20.6351 15.5411 20.4109 15.1971 19.9624C14.9446 19.6336 14.8149 19.1158 14.8149 18.4177V16.117C14.8149 15.4147 14.9299 14.9011 15.1829 14.5692C15.5267 14.1196 16.0004 13.8958 16.6085 13.8958C17.2057 13.8958 17.6792 14.1196 18.0127 14.5692C18.262 14.9011 18.3812 15.4147 18.3812 16.117V17.4769H18.3807Z" fill="#FFF"></path>
<path d="M16.5977 14.9668C16.1999 14.9668 16.0005 15.2707 16.0005 15.878V16.4858H17.1906V15.878C17.1904 15.2707 16.9914 14.9668 16.5977 14.9668Z" fill="#FFF"></path>
<path d="M12.1806 14.9668C11.9845 14.9668 11.7858 15.0594 11.5869 15.2563V19.26C11.7856 19.4592 11.9845 19.5533 12.1806 19.5533C12.5238 19.5533 12.6983 19.26 12.6983 18.6669V15.8631C12.6983 15.2707 12.5238 14.9668 12.1806 14.9668Z" fill="#FFF"></path>
<path d="M12.8455 8.99932C13.2842 8.99932 13.7407 8.73273 14.2196 8.18411V8.90822H15.4226V2.26953H14.2196V7.34344C13.953 7.72016 13.7003 7.90646 13.4597 7.90646C13.2986 7.90646 13.2039 7.81125 13.1777 7.62469C13.163 7.58532 13.163 7.43891 13.163 7.15714V2.26953H11.9639V7.51893C11.9639 7.98778 12.004 8.30506 12.0704 8.50603C12.1913 8.84235 12.4582 8.99932 12.8455 8.99932Z" fill="#FFF"></path>
<path d="M4.47062 5.30035V8.90829H5.80459V5.30035L7.40926 0H6.06037L5.15021 3.49831L4.20326 0H2.79956C3.08082 0.825752 3.37339 1.65562 3.65465 2.48214C4.08258 3.7245 4.34968 4.66116 4.47062 5.30035Z" fill="#FFF"></path>
<path d="M9.19724 8.99928C9.7999 8.99928 10.2682 8.77258 10.6004 8.31969C10.8529 7.98748 10.9738 7.46409 10.9738 6.7585V4.43384C10.9738 3.72414 10.8531 3.20538 10.6004 2.87009C10.2682 2.41591 9.80015 2.18921 9.19724 2.18921C8.59768 2.18921 8.12961 2.41591 7.79663 2.87009C7.54111 3.20538 7.42017 3.72414 7.42017 4.43384V6.7585C7.42017 7.46409 7.54111 7.98748 7.79663 8.31969C8.12935 8.77258 8.59768 8.99928 9.19724 8.99928ZM8.62315 4.19273C8.62315 3.5785 8.80946 3.27228 9.19724 3.27228C9.58503 3.27228 9.77082 3.57824 9.77082 4.19273V6.98521C9.77082 7.59944 9.58503 7.90668 9.19724 7.90668C8.80946 7.90668 8.62315 7.59944 8.62315 6.98521V4.19273Z" fill="#FFF"></path>
</g>
<defs>
<clipPath id="clip0">
<rect width="20" height="23.3333" fill="white"></rect>
</clipPath>
</defs>
</svg>